{"asset":{"version":"2.0","generator":"VECTARY"},"nodes":[{"translation":[0,0,0],"scale":[0.0009999999999999996,0.0009999999999999998,0.001],"rotation":[-0.49808087316055705,0.5019117888549911,0.5019117888549911,0.49808087316055705],"name":"Blue Sky Gradient ORB IN","mesh":0}],"materials":[{"pbrMetallicRoughness":{"baseColorFactor":[0.016067700890886875,0.7667436168621613,0.6387794556508168,1],"metallicFactor":0,"roughnessFactor":0},"name":"Material.001","emissiveFactor":[0.07647058823529412,0.44313725490196076,0.40784313725490196],"alphaMode":"OPAQUE","doubleSided":false}],"meshes":[{"primitives":[{"mode":4,"attributes":{"POSITION":1,"NORMAL":2,"TEXCOORD_0":3,"TEXCOORD_1":4},"material":0,"indices":0}]}],"accessors":[{"bufferView":0,"byteOffset":0,"componentType":5125,"count":1584,"type":"SCALAR"},{"bufferView":1,"byteOffset":0,"componentType":5126,"count":401,"max":[0.9999989867210388,0.9999995231628418,2],"min":[-0.9999989867210388,-0.999999463558197,-2.220447108041497e-16],"type":"VEC3"},{"bufferView":2,"byteOffset":0,"componentType":5126,"count":401,"type":"VEC3"},{"bufferView":3,"byteOffset":0,"componentType":5126,"count":401,"type":"VEC2"},{"bufferView":4,"byteOffset":0,"componentType":5126,"count":401,"type":"VEC2"}],"bufferViews":[{"buffer":0,"byteOffset":0,"byteLength":6336,"target":34963},{"buffer":0,"byteOffset":6336,"byteLength":4812,"target":34962},{"buffer":0,"byteOffset":11148,"byteLength":4812,"target":34962},{"buffer":0,"byteOffset":15960,"byteLength":3208,"target":34962},{"buffer":0,"byteOffset":19168,"byteLength":3208,"target":34962}],"scene":0,"scenes":[{"nodes":[0],"name":"SH_orb_revised"}],"extensionsUsed":["KHR_texture_transform"],"buffers":[{"byteLength":22376,"uri":"SH_orb_revised.bin"}]}